<mxfile host="Electron" modified="2023-10-18T16:29:44.380Z" agent="Mozilla/5.0 (Windows NT 10.0; Win64; x64) AppleWebKit/537.36 (KHTML, like Gecko) draw.io/22.0.2 Chrome/114.0.5735.289 Electron/25.8.4 Safari/537.36" etag="hgo7QIWKKubt_u9ksyWw" version="22.0.2" type="device">
  <diagram name="Seite-1" id="TkYB_ElV6mBqudeqmio-">
    <mxGraphModel dx="2620" dy="1055" grid="1" gridSize="10" guides="1" tooltips="1" connect="1" arrows="1" fold="1" page="1" pageScale="1" pageWidth="827" pageHeight="1169" math="0" shadow="0">
      <root>
        <mxCell id="0" />
        <mxCell id="1" parent="0" />
        <mxCell id="AWj1wq0FyH8tM0hqccie-1" value="&lt;font style=&quot;font-size: 20px;&quot;&gt;&lt;b&gt;Context Diagram&lt;/b&gt;&lt;/font&gt;" style="text;html=1;strokeColor=none;fillColor=none;align=center;verticalAlign=middle;whiteSpace=wrap;rounded=0;" parent="1" vertex="1">
          <mxGeometry x="309" y="40" width="209" height="30" as="geometry" />
        </mxCell>
        <mxCell id="AWj1wq0FyH8tM0hqccie-4" value="System" style="ellipse;whiteSpace=wrap;html=1;" parent="1" vertex="1">
          <mxGeometry x="303" y="205" width="220" height="210" as="geometry" />
        </mxCell>
        <mxCell id="AWj1wq0FyH8tM0hqccie-5" value="Wassertank klein" style="ellipse;whiteSpace=wrap;html=1;" parent="1" vertex="1">
          <mxGeometry x="79" y="85" width="160" height="130" as="geometry" />
        </mxCell>
        <mxCell id="AWj1wq0FyH8tM0hqccie-7" value="" style="curved=1;endArrow=classic;html=1;rounded=0;entryX=0.064;entryY=0.233;entryDx=0;entryDy=0;entryPerimeter=0;exitX=1;exitY=1;exitDx=0;exitDy=0;" parent="1" source="AWj1wq0FyH8tM0hqccie-5" target="AWj1wq0FyH8tM0hqccie-4" edge="1">
          <mxGeometry width="50" height="50" relative="1" as="geometry">
            <mxPoint x="99" y="365" as="sourcePoint" />
            <mxPoint x="149" y="315" as="targetPoint" />
          </mxGeometry>
        </mxCell>
        <mxCell id="AWj1wq0FyH8tM0hqccie-8" value="F체llstand 1 Analog" style="edgeLabel;html=1;align=center;verticalAlign=middle;resizable=0;points=[];" parent="AWj1wq0FyH8tM0hqccie-7" vertex="1" connectable="0">
          <mxGeometry x="0.0572" relative="1" as="geometry">
            <mxPoint as="offset" />
          </mxGeometry>
        </mxCell>
        <mxCell id="AWj1wq0FyH8tM0hqccie-9" value="" style="curved=1;endArrow=classic;html=1;rounded=0;entryX=0;entryY=0;entryDx=0;entryDy=0;exitX=0.982;exitY=0.642;exitDx=0;exitDy=0;exitPerimeter=0;" parent="1" source="AWj1wq0FyH8tM0hqccie-5" target="AWj1wq0FyH8tM0hqccie-4" edge="1">
          <mxGeometry width="50" height="50" relative="1" as="geometry">
            <mxPoint x="269" y="165" as="sourcePoint" />
            <mxPoint x="370" y="223" as="targetPoint" />
            <Array as="points">
              <mxPoint x="299" y="175" />
            </Array>
          </mxGeometry>
        </mxCell>
        <mxCell id="AWj1wq0FyH8tM0hqccie-10" value="Tank 1 voll" style="edgeLabel;html=1;align=center;verticalAlign=middle;resizable=0;points=[];" parent="AWj1wq0FyH8tM0hqccie-9" vertex="1" connectable="0">
          <mxGeometry x="0.0572" relative="1" as="geometry">
            <mxPoint as="offset" />
          </mxGeometry>
        </mxCell>
        <mxCell id="AWj1wq0FyH8tM0hqccie-11" value="" style="curved=1;endArrow=classic;html=1;rounded=0;entryX=0.035;entryY=0.306;entryDx=0;entryDy=0;exitX=0.758;exitY=0.939;exitDx=0;exitDy=0;exitPerimeter=0;entryPerimeter=0;" parent="1" source="AWj1wq0FyH8tM0hqccie-5" target="AWj1wq0FyH8tM0hqccie-4" edge="1">
          <mxGeometry width="50" height="50" relative="1" as="geometry">
            <mxPoint x="169" y="276" as="sourcePoint" />
            <mxPoint x="268" y="344" as="targetPoint" />
            <Array as="points">
              <mxPoint x="229" y="275" />
            </Array>
          </mxGeometry>
        </mxCell>
        <mxCell id="AWj1wq0FyH8tM0hqccie-12" value="Tank 1 leer" style="edgeLabel;html=1;align=center;verticalAlign=middle;resizable=0;points=[];" parent="AWj1wq0FyH8tM0hqccie-11" vertex="1" connectable="0">
          <mxGeometry x="0.0572" relative="1" as="geometry">
            <mxPoint as="offset" />
          </mxGeometry>
        </mxCell>
        <mxCell id="AWj1wq0FyH8tM0hqccie-13" value="Wassertank gross" style="ellipse;whiteSpace=wrap;html=1;" parent="1" vertex="1">
          <mxGeometry x="9" y="265" width="160" height="150" as="geometry" />
        </mxCell>
        <mxCell id="AWj1wq0FyH8tM0hqccie-14" value="" style="curved=1;endArrow=classic;html=1;rounded=0;entryX=0.003;entryY=0.552;entryDx=0;entryDy=0;entryPerimeter=0;exitX=1.008;exitY=0.393;exitDx=0;exitDy=0;exitPerimeter=0;" parent="1" source="AWj1wq0FyH8tM0hqccie-13" target="AWj1wq0FyH8tM0hqccie-4" edge="1">
          <mxGeometry width="50" height="50" relative="1" as="geometry">
            <mxPoint x="226" y="206" as="sourcePoint" />
            <mxPoint x="327" y="264" as="targetPoint" />
          </mxGeometry>
        </mxCell>
        <mxCell id="AWj1wq0FyH8tM0hqccie-15" value="F체llstand 2 Analog" style="edgeLabel;html=1;align=center;verticalAlign=middle;resizable=0;points=[];" parent="AWj1wq0FyH8tM0hqccie-14" vertex="1" connectable="0">
          <mxGeometry x="0.0572" relative="1" as="geometry">
            <mxPoint x="-10" y="12" as="offset" />
          </mxGeometry>
        </mxCell>
        <mxCell id="AWj1wq0FyH8tM0hqccie-16" value="Steuerglieder" style="ellipse;whiteSpace=wrap;html=1;" parent="1" vertex="1">
          <mxGeometry x="129" y="455" width="160" height="130" as="geometry" />
        </mxCell>
        <mxCell id="AWj1wq0FyH8tM0hqccie-18" value="" style="curved=1;endArrow=none;html=1;rounded=0;entryX=0.198;entryY=0.903;entryDx=0;entryDy=0;exitX=0.903;exitY=0.189;exitDx=0;exitDy=0;endFill=0;startArrow=classic;startFill=1;entryPerimeter=0;exitPerimeter=0;" parent="1" source="AWj1wq0FyH8tM0hqccie-16" target="AWj1wq0FyH8tM0hqccie-4" edge="1">
          <mxGeometry width="50" height="50" relative="1" as="geometry">
            <mxPoint x="249" y="449" as="sourcePoint" />
            <mxPoint x="349" y="435" as="targetPoint" />
            <Array as="points">
              <mxPoint x="319" y="455" />
            </Array>
          </mxGeometry>
        </mxCell>
        <mxCell id="AWj1wq0FyH8tM0hqccie-19" value="Ventil auf [4x]" style="edgeLabel;html=1;align=center;verticalAlign=middle;resizable=0;points=[];" parent="AWj1wq0FyH8tM0hqccie-18" vertex="1" connectable="0">
          <mxGeometry x="0.0572" relative="1" as="geometry">
            <mxPoint as="offset" />
          </mxGeometry>
        </mxCell>
        <mxCell id="AWj1wq0FyH8tM0hqccie-21" value="" style="curved=1;endArrow=none;html=1;rounded=0;entryX=0.072;entryY=0.765;entryDx=0;entryDy=0;exitX=0.67;exitY=0.003;exitDx=0;exitDy=0;endFill=0;startArrow=classic;startFill=1;entryPerimeter=0;exitPerimeter=0;" parent="1" source="AWj1wq0FyH8tM0hqccie-16" target="AWj1wq0FyH8tM0hqccie-4" edge="1">
          <mxGeometry width="50" height="50" relative="1" as="geometry">
            <mxPoint x="234" y="445" as="sourcePoint" />
            <mxPoint x="303" y="355" as="targetPoint" />
            <Array as="points">
              <mxPoint x="259" y="395" />
            </Array>
          </mxGeometry>
        </mxCell>
        <mxCell id="AWj1wq0FyH8tM0hqccie-22" value="Pumpe an [2x]" style="edgeLabel;html=1;align=center;verticalAlign=middle;resizable=0;points=[];" parent="AWj1wq0FyH8tM0hqccie-21" vertex="1" connectable="0">
          <mxGeometry x="0.0572" relative="1" as="geometry">
            <mxPoint as="offset" />
          </mxGeometry>
        </mxCell>
        <mxCell id="AWj1wq0FyH8tM0hqccie-23" value="" style="curved=1;endArrow=classic;html=1;rounded=0;entryX=0.348;entryY=0.989;entryDx=0;entryDy=0;exitX=1;exitY=0.5;exitDx=0;exitDy=0;endFill=1;startArrow=none;startFill=0;entryPerimeter=0;" parent="1" source="AWj1wq0FyH8tM0hqccie-16" target="AWj1wq0FyH8tM0hqccie-4" edge="1">
          <mxGeometry width="50" height="50" relative="1" as="geometry">
            <mxPoint x="309" y="530" as="sourcePoint" />
            <mxPoint x="383" y="445" as="targetPoint" />
            <Array as="points">
              <mxPoint x="355" y="505" />
            </Array>
          </mxGeometry>
        </mxCell>
        <mxCell id="AWj1wq0FyH8tM0hqccie-24" value="R체ckmeldung Ventile/Pumpe?" style="edgeLabel;html=1;align=center;verticalAlign=middle;resizable=0;points=[];" parent="AWj1wq0FyH8tM0hqccie-23" vertex="1" connectable="0">
          <mxGeometry x="0.0572" relative="1" as="geometry">
            <mxPoint x="19" as="offset" />
          </mxGeometry>
        </mxCell>
        <mxCell id="AWj1wq0FyH8tM0hqccie-25" value="Benutzer" style="ellipse;whiteSpace=wrap;html=1;" parent="1" vertex="1">
          <mxGeometry x="639" y="230" width="180" height="160" as="geometry" />
        </mxCell>
        <mxCell id="AWj1wq0FyH8tM0hqccie-26" value="" style="curved=1;endArrow=classic;html=1;rounded=0;entryX=1;entryY=0.5;entryDx=0;entryDy=0;exitX=0;exitY=0.5;exitDx=0;exitDy=0;endFill=1;startArrow=none;startFill=0;" parent="1" source="AWj1wq0FyH8tM0hqccie-25" target="AWj1wq0FyH8tM0hqccie-4" edge="1">
          <mxGeometry width="50" height="50" relative="1" as="geometry">
            <mxPoint x="499" y="455" as="sourcePoint" />
            <mxPoint x="590" y="348" as="targetPoint" />
          </mxGeometry>
        </mxCell>
        <mxCell id="AWj1wq0FyH8tM0hqccie-27" value="Bew채sserung&lt;br&gt;EIN/AUS" style="edgeLabel;html=1;align=center;verticalAlign=middle;resizable=0;points=[];" parent="AWj1wq0FyH8tM0hqccie-26" vertex="1" connectable="0">
          <mxGeometry x="0.0572" relative="1" as="geometry">
            <mxPoint x="11" y="-15" as="offset" />
          </mxGeometry>
        </mxCell>
        <mxCell id="AWj1wq0FyH8tM0hqccie-28" value="" style="curved=1;endArrow=classic;html=1;rounded=0;entryX=1;entryY=0.381;entryDx=0;entryDy=0;exitX=0.019;exitY=0.335;exitDx=0;exitDy=0;endFill=1;startArrow=none;startFill=0;entryPerimeter=0;exitPerimeter=0;" parent="1" source="AWj1wq0FyH8tM0hqccie-25" target="AWj1wq0FyH8tM0hqccie-4" edge="1">
          <mxGeometry width="50" height="50" relative="1" as="geometry">
            <mxPoint x="629" y="325" as="sourcePoint" />
            <mxPoint x="525" y="275" as="targetPoint" />
            <Array as="points">
              <mxPoint x="579" y="255" />
            </Array>
          </mxGeometry>
        </mxCell>
        <mxCell id="AWj1wq0FyH8tM0hqccie-29" value="Autom. Bew채sserung &lt;br&gt;EIN/AUS" style="edgeLabel;html=1;align=center;verticalAlign=middle;resizable=0;points=[];" parent="AWj1wq0FyH8tM0hqccie-28" vertex="1" connectable="0">
          <mxGeometry x="0.0572" relative="1" as="geometry">
            <mxPoint x="11" y="-10" as="offset" />
          </mxGeometry>
        </mxCell>
        <mxCell id="AWj1wq0FyH8tM0hqccie-30" value="" style="curved=1;endArrow=none;html=1;rounded=0;exitX=0;exitY=0.616;exitDx=0;exitDy=0;endFill=0;startArrow=classic;startFill=1;exitPerimeter=0;entryX=0.994;entryY=0.591;entryDx=0;entryDy=0;entryPerimeter=0;" parent="1" source="AWj1wq0FyH8tM0hqccie-25" target="AWj1wq0FyH8tM0hqccie-4" edge="1">
          <mxGeometry width="50" height="50" relative="1" as="geometry">
            <mxPoint x="629" y="415" as="sourcePoint" />
            <mxPoint x="529" y="335" as="targetPoint" />
            <Array as="points">
              <mxPoint x="589" y="345" />
            </Array>
          </mxGeometry>
        </mxCell>
        <mxCell id="AWj1wq0FyH8tM0hqccie-31" value="Status Bew채sserung" style="edgeLabel;html=1;align=center;verticalAlign=middle;resizable=0;points=[];" parent="AWj1wq0FyH8tM0hqccie-30" vertex="1" connectable="0">
          <mxGeometry x="0.0572" relative="1" as="geometry">
            <mxPoint x="1" y="3" as="offset" />
          </mxGeometry>
        </mxCell>
        <mxCell id="AWj1wq0FyH8tM0hqccie-32" value="" style="curved=1;endArrow=none;html=1;rounded=0;entryX=0.947;entryY=0.736;entryDx=0;entryDy=0;endFill=0;startArrow=classic;startFill=1;entryPerimeter=0;exitX=0.092;exitY=0.818;exitDx=0;exitDy=0;exitPerimeter=0;" parent="1" source="AWj1wq0FyH8tM0hqccie-25" target="AWj1wq0FyH8tM0hqccie-4" edge="1">
          <mxGeometry width="50" height="50" relative="1" as="geometry">
            <mxPoint x="642" y="379" as="sourcePoint" />
            <mxPoint x="517" y="382" as="targetPoint" />
            <Array as="points">
              <mxPoint x="589" y="395" />
            </Array>
          </mxGeometry>
        </mxCell>
        <mxCell id="AWj1wq0FyH8tM0hqccie-33" value="Status&lt;br&gt;Pumpen/Ventile" style="edgeLabel;html=1;align=center;verticalAlign=middle;resizable=0;points=[];" parent="AWj1wq0FyH8tM0hqccie-32" vertex="1" connectable="0">
          <mxGeometry x="0.0572" relative="1" as="geometry">
            <mxPoint x="9" y="4" as="offset" />
          </mxGeometry>
        </mxCell>
        <mxCell id="AWj1wq0FyH8tM0hqccie-34" value="" style="curved=1;endArrow=none;html=1;rounded=0;entryX=1;entryY=1;entryDx=0;entryDy=0;endFill=0;startArrow=classic;startFill=1;exitX=0.268;exitY=0.965;exitDx=0;exitDy=0;exitPerimeter=0;" parent="1" source="AWj1wq0FyH8tM0hqccie-25" target="AWj1wq0FyH8tM0hqccie-4" edge="1">
          <mxGeometry width="50" height="50" relative="1" as="geometry">
            <mxPoint x="662" y="390" as="sourcePoint" />
            <mxPoint x="509" y="398" as="targetPoint" />
            <Array as="points">
              <mxPoint x="579" y="465" />
            </Array>
          </mxGeometry>
        </mxCell>
        <mxCell id="AWj1wq0FyH8tM0hqccie-35" value="Tank F체llstand [2x]" style="edgeLabel;html=1;align=center;verticalAlign=middle;resizable=0;points=[];" parent="AWj1wq0FyH8tM0hqccie-34" vertex="1" connectable="0">
          <mxGeometry x="0.0572" relative="1" as="geometry">
            <mxPoint y="-30" as="offset" />
          </mxGeometry>
        </mxCell>
        <mxCell id="AWj1wq0FyH8tM0hqccie-38" value="" style="curved=1;endArrow=classic;html=1;rounded=0;entryX=0.906;entryY=0.204;entryDx=0;entryDy=0;exitX=0.161;exitY=0.103;exitDx=0;exitDy=0;endFill=1;startArrow=none;startFill=0;entryPerimeter=0;exitPerimeter=0;" parent="1" source="AWj1wq0FyH8tM0hqccie-25" target="AWj1wq0FyH8tM0hqccie-4" edge="1">
          <mxGeometry width="50" height="50" relative="1" as="geometry">
            <mxPoint x="642" y="234" as="sourcePoint" />
            <mxPoint x="523" y="235" as="targetPoint" />
            <Array as="points">
              <mxPoint x="579" y="195" />
            </Array>
          </mxGeometry>
        </mxCell>
        <mxCell id="AWj1wq0FyH8tM0hqccie-39" value="Bew채sserungszeiten" style="edgeLabel;html=1;align=center;verticalAlign=middle;resizable=0;points=[];" parent="AWj1wq0FyH8tM0hqccie-38" vertex="1" connectable="0">
          <mxGeometry x="0.0572" relative="1" as="geometry">
            <mxPoint x="11" y="10" as="offset" />
          </mxGeometry>
        </mxCell>
        <mxCell id="AWj1wq0FyH8tM0hqccie-40" value="&lt;font style=&quot;font-size: 20px;&quot;&gt;&lt;b&gt;DFD0&lt;/b&gt;&lt;/font&gt;" style="text;html=1;strokeColor=none;fillColor=none;align=center;verticalAlign=middle;whiteSpace=wrap;rounded=0;" parent="1" vertex="1">
          <mxGeometry x="309" y="640" width="209" height="30" as="geometry" />
        </mxCell>
        <mxCell id="AWj1wq0FyH8tM0hqccie-41" value="Web-Client" style="ellipse;whiteSpace=wrap;html=1;" parent="1" vertex="1">
          <mxGeometry x="837.5" y="870" width="139" height="110" as="geometry" />
        </mxCell>
        <mxCell id="AWj1wq0FyH8tM0hqccie-42" value="Datenbank" style="shape=cylinder3;whiteSpace=wrap;html=1;boundedLbl=1;backgroundOutline=1;size=15;" parent="1" vertex="1">
          <mxGeometry x="663.5" y="670" width="90" height="80" as="geometry" />
        </mxCell>
        <mxCell id="AWj1wq0FyH8tM0hqccie-43" value="High Level Controller" style="ellipse;whiteSpace=wrap;html=1;" parent="1" vertex="1">
          <mxGeometry x="193" y="833.75" width="217" height="192.5" as="geometry" />
        </mxCell>
        <mxCell id="AWj1wq0FyH8tM0hqccie-44" value="Low Level Controller" style="ellipse;whiteSpace=wrap;html=1;" parent="1" vertex="1">
          <mxGeometry x="-160" y="828" width="220" height="200" as="geometry" />
        </mxCell>
        <mxCell id="AWj1wq0FyH8tM0hqccie-45" value="" style="curved=1;endArrow=classic;html=1;rounded=0;entryX=0.094;entryY=0.192;entryDx=0;entryDy=0;entryPerimeter=0;" parent="1" target="AWj1wq0FyH8tM0hqccie-44" edge="1">
          <mxGeometry width="50" height="50" relative="1" as="geometry">
            <mxPoint x="-230" y="800" as="sourcePoint" />
            <mxPoint x="-213" y="858" as="targetPoint" />
          </mxGeometry>
        </mxCell>
        <mxCell id="AWj1wq0FyH8tM0hqccie-46" value="F체llstand 1 Analog" style="edgeLabel;html=1;align=center;verticalAlign=middle;resizable=0;points=[];" parent="AWj1wq0FyH8tM0hqccie-45" vertex="1" connectable="0">
          <mxGeometry x="0.0572" relative="1" as="geometry">
            <mxPoint as="offset" />
          </mxGeometry>
        </mxCell>
        <mxCell id="AWj1wq0FyH8tM0hqccie-47" value="" style="curved=1;endArrow=classic;html=1;rounded=0;entryX=0.203;entryY=0.092;entryDx=0;entryDy=0;entryPerimeter=0;" parent="1" target="AWj1wq0FyH8tM0hqccie-44" edge="1">
          <mxGeometry width="50" height="50" relative="1" as="geometry">
            <mxPoint x="-190" y="772" as="sourcePoint" />
            <mxPoint x="-121" y="840" as="targetPoint" />
            <Array as="points" />
          </mxGeometry>
        </mxCell>
        <mxCell id="AWj1wq0FyH8tM0hqccie-48" value="Tank 1 voll" style="edgeLabel;html=1;align=center;verticalAlign=middle;resizable=0;points=[];" parent="AWj1wq0FyH8tM0hqccie-47" vertex="1" connectable="0">
          <mxGeometry x="0.0572" relative="1" as="geometry">
            <mxPoint as="offset" />
          </mxGeometry>
        </mxCell>
        <mxCell id="AWj1wq0FyH8tM0hqccie-49" value="" style="curved=1;endArrow=classic;html=1;rounded=0;entryX=0.029;entryY=0.304;entryDx=0;entryDy=0;entryPerimeter=0;" parent="1" target="AWj1wq0FyH8tM0hqccie-44" edge="1">
          <mxGeometry width="50" height="50" relative="1" as="geometry">
            <mxPoint x="-260" y="848" as="sourcePoint" />
            <mxPoint x="-219" y="873" as="targetPoint" />
          </mxGeometry>
        </mxCell>
        <mxCell id="AWj1wq0FyH8tM0hqccie-50" value="Tank 1 leer" style="edgeLabel;html=1;align=center;verticalAlign=middle;resizable=0;points=[];" parent="AWj1wq0FyH8tM0hqccie-49" vertex="1" connectable="0">
          <mxGeometry x="0.0572" relative="1" as="geometry">
            <mxPoint as="offset" />
          </mxGeometry>
        </mxCell>
        <mxCell id="AWj1wq0FyH8tM0hqccie-51" value="" style="curved=1;endArrow=classic;html=1;rounded=0;entryX=-0.005;entryY=0.458;entryDx=0;entryDy=0;entryPerimeter=0;" parent="1" target="AWj1wq0FyH8tM0hqccie-44" edge="1">
          <mxGeometry width="50" height="50" relative="1" as="geometry">
            <mxPoint x="-270" y="908" as="sourcePoint" />
            <mxPoint x="-226" y="925" as="targetPoint" />
          </mxGeometry>
        </mxCell>
        <mxCell id="AWj1wq0FyH8tM0hqccie-52" value="F체llstand 2 Analog" style="edgeLabel;html=1;align=center;verticalAlign=middle;resizable=0;points=[];" parent="AWj1wq0FyH8tM0hqccie-51" vertex="1" connectable="0">
          <mxGeometry x="0.0572" relative="1" as="geometry">
            <mxPoint x="-10" y="12" as="offset" />
          </mxGeometry>
        </mxCell>
        <mxCell id="AWj1wq0FyH8tM0hqccie-53" value="" style="curved=1;endArrow=none;html=1;rounded=0;entryX=0.045;entryY=0.732;entryDx=0;entryDy=0;endFill=0;startArrow=classic;startFill=1;entryPerimeter=0;" parent="1" target="AWj1wq0FyH8tM0hqccie-44" edge="1">
          <mxGeometry width="50" height="50" relative="1" as="geometry">
            <mxPoint x="-250" y="1028" as="sourcePoint" />
            <mxPoint x="-183" y="999" as="targetPoint" />
          </mxGeometry>
        </mxCell>
        <mxCell id="AWj1wq0FyH8tM0hqccie-54" value="Ventil auf [4x]" style="edgeLabel;html=1;align=center;verticalAlign=middle;resizable=0;points=[];" parent="AWj1wq0FyH8tM0hqccie-53" vertex="1" connectable="0">
          <mxGeometry x="0.0572" relative="1" as="geometry">
            <mxPoint as="offset" />
          </mxGeometry>
        </mxCell>
        <mxCell id="AWj1wq0FyH8tM0hqccie-55" value="" style="curved=1;endArrow=none;html=1;rounded=0;entryX=0.003;entryY=0.618;entryDx=0;entryDy=0;endFill=0;startArrow=classic;startFill=1;entryPerimeter=0;" parent="1" target="AWj1wq0FyH8tM0hqccie-44" edge="1">
          <mxGeometry width="50" height="50" relative="1" as="geometry">
            <mxPoint x="-270" y="978" as="sourcePoint" />
            <mxPoint x="-211" y="970" as="targetPoint" />
          </mxGeometry>
        </mxCell>
        <mxCell id="AWj1wq0FyH8tM0hqccie-56" value="Pumpe an [2x]" style="edgeLabel;html=1;align=center;verticalAlign=middle;resizable=0;points=[];" parent="AWj1wq0FyH8tM0hqccie-55" vertex="1" connectable="0">
          <mxGeometry x="0.0572" relative="1" as="geometry">
            <mxPoint as="offset" />
          </mxGeometry>
        </mxCell>
        <mxCell id="AWj1wq0FyH8tM0hqccie-57" value="" style="curved=1;endArrow=classic;html=1;rounded=0;entryX=0;entryY=1;entryDx=0;entryDy=0;endFill=1;startArrow=none;startFill=0;" parent="1" target="AWj1wq0FyH8tM0hqccie-44" edge="1">
          <mxGeometry width="50" height="50" relative="1" as="geometry">
            <mxPoint x="-210" y="1088" as="sourcePoint" />
            <mxPoint x="-150" y="1017" as="targetPoint" />
          </mxGeometry>
        </mxCell>
        <mxCell id="AWj1wq0FyH8tM0hqccie-58" value="R체ckmeldung Ventile/Pumpe?" style="edgeLabel;html=1;align=center;verticalAlign=middle;resizable=0;points=[];" parent="AWj1wq0FyH8tM0hqccie-57" vertex="1" connectable="0">
          <mxGeometry x="0.0572" relative="1" as="geometry">
            <mxPoint x="19" as="offset" />
          </mxGeometry>
        </mxCell>
        <mxCell id="AWj1wq0FyH8tM0hqccie-59" value="" style="curved=1;endArrow=none;html=1;rounded=0;entryX=0;entryY=0.5;entryDx=0;entryDy=0;exitX=1;exitY=0.5;exitDx=0;exitDy=0;startArrow=block;startFill=1;endFill=0;" parent="1" source="AWj1wq0FyH8tM0hqccie-44" target="AWj1wq0FyH8tM0hqccie-43" edge="1">
          <mxGeometry width="50" height="50" relative="1" as="geometry">
            <mxPoint x="60" y="920" as="sourcePoint" />
            <mxPoint x="169" y="932" as="targetPoint" />
          </mxGeometry>
        </mxCell>
        <mxCell id="AWj1wq0FyH8tM0hqccie-60" value="SPRINKLER_START" style="edgeLabel;html=1;align=center;verticalAlign=middle;resizable=0;points=[];" parent="AWj1wq0FyH8tM0hqccie-59" vertex="1" connectable="0">
          <mxGeometry x="0.0572" relative="1" as="geometry">
            <mxPoint x="1" y="12" as="offset" />
          </mxGeometry>
        </mxCell>
        <mxCell id="AWj1wq0FyH8tM0hqccie-61" value="" style="curved=1;endArrow=none;html=1;rounded=0;exitX=0.991;exitY=0.62;exitDx=0;exitDy=0;startArrow=block;startFill=1;endFill=0;exitPerimeter=0;" parent="1" source="AWj1wq0FyH8tM0hqccie-44" target="AWj1wq0FyH8tM0hqccie-43" edge="1">
          <mxGeometry width="50" height="50" relative="1" as="geometry">
            <mxPoint x="60" y="970" as="sourcePoint" />
            <mxPoint x="190" y="972" as="targetPoint" />
            <Array as="points">
              <mxPoint x="130" y="970" />
            </Array>
          </mxGeometry>
        </mxCell>
        <mxCell id="AWj1wq0FyH8tM0hqccie-62" value="SPRINKLER_STOP" style="edgeLabel;html=1;align=center;verticalAlign=middle;resizable=0;points=[];" parent="AWj1wq0FyH8tM0hqccie-61" vertex="1" connectable="0">
          <mxGeometry x="0.0572" relative="1" as="geometry">
            <mxPoint x="1" as="offset" />
          </mxGeometry>
        </mxCell>
        <mxCell id="AWj1wq0FyH8tM0hqccie-63" value="" style="curved=1;endArrow=none;html=1;rounded=0;entryX=0.075;entryY=0.76;entryDx=0;entryDy=0;exitX=0.943;exitY=0.735;exitDx=0;exitDy=0;startArrow=block;startFill=1;endFill=0;exitPerimeter=0;entryPerimeter=0;" parent="1" source="AWj1wq0FyH8tM0hqccie-44" target="AWj1wq0FyH8tM0hqccie-43" edge="1">
          <mxGeometry width="50" height="50" relative="1" as="geometry">
            <mxPoint x="60" y="995" as="sourcePoint" />
            <mxPoint x="200" y="996" as="targetPoint" />
            <Array as="points">
              <mxPoint x="130" y="1020" />
            </Array>
          </mxGeometry>
        </mxCell>
        <mxCell id="AWj1wq0FyH8tM0hqccie-64" value="HOSE_START" style="edgeLabel;html=1;align=center;verticalAlign=middle;resizable=0;points=[];" parent="AWj1wq0FyH8tM0hqccie-63" vertex="1" connectable="0">
          <mxGeometry x="0.0572" relative="1" as="geometry">
            <mxPoint x="-5" y="-7" as="offset" />
          </mxGeometry>
        </mxCell>
        <mxCell id="AWj1wq0FyH8tM0hqccie-65" value="" style="curved=1;endArrow=none;html=1;rounded=0;entryX=0;entryY=1;entryDx=0;entryDy=0;exitX=0.887;exitY=0.832;exitDx=0;exitDy=0;startArrow=block;startFill=1;endFill=0;exitPerimeter=0;" parent="1" source="AWj1wq0FyH8tM0hqccie-44" target="AWj1wq0FyH8tM0hqccie-43" edge="1">
          <mxGeometry width="50" height="50" relative="1" as="geometry">
            <mxPoint x="47" y="1010" as="sourcePoint" />
            <mxPoint x="213" y="1011" as="targetPoint" />
            <Array as="points">
              <mxPoint x="130" y="1055" />
            </Array>
          </mxGeometry>
        </mxCell>
        <mxCell id="AWj1wq0FyH8tM0hqccie-66" value="HOSE_STOP" style="edgeLabel;html=1;align=center;verticalAlign=middle;resizable=0;points=[];" parent="AWj1wq0FyH8tM0hqccie-65" vertex="1" connectable="0">
          <mxGeometry x="0.0572" relative="1" as="geometry">
            <mxPoint x="-9" y="-9" as="offset" />
          </mxGeometry>
        </mxCell>
        <mxCell id="AWj1wq0FyH8tM0hqccie-69" value="" style="curved=1;endArrow=classic;html=1;rounded=0;startArrow=none;startFill=0;endFill=1;" parent="1" target="AWj1wq0FyH8tM0hqccie-43" edge="1">
          <mxGeometry width="50" height="50" relative="1" as="geometry">
            <mxPoint x="60" y="910" as="sourcePoint" />
            <mxPoint x="190" y="892" as="targetPoint" />
            <Array as="points">
              <mxPoint x="130" y="900" />
            </Array>
          </mxGeometry>
        </mxCell>
        <mxCell id="AWj1wq0FyH8tM0hqccie-70" value="SPRINKLER_STATUS" style="edgeLabel;html=1;align=center;verticalAlign=middle;resizable=0;points=[];" parent="AWj1wq0FyH8tM0hqccie-69" vertex="1" connectable="0">
          <mxGeometry x="0.0572" relative="1" as="geometry">
            <mxPoint x="1" y="-10" as="offset" />
          </mxGeometry>
        </mxCell>
        <mxCell id="AWj1wq0FyH8tM0hqccie-71" value="" style="curved=1;endArrow=classic;html=1;rounded=0;entryX=0.066;entryY=0.254;entryDx=0;entryDy=0;exitX=0.943;exitY=0.265;exitDx=0;exitDy=0;startArrow=none;startFill=0;endFill=1;exitPerimeter=0;entryPerimeter=0;" parent="1" source="AWj1wq0FyH8tM0hqccie-44" target="AWj1wq0FyH8tM0hqccie-43" edge="1">
          <mxGeometry width="50" height="50" relative="1" as="geometry">
            <mxPoint x="60" y="873" as="sourcePoint" />
            <mxPoint x="192" y="875" as="targetPoint" />
            <Array as="points">
              <mxPoint x="130" y="860" />
            </Array>
          </mxGeometry>
        </mxCell>
        <mxCell id="AWj1wq0FyH8tM0hqccie-72" value="HOSE_STATUS" style="edgeLabel;html=1;align=center;verticalAlign=middle;resizable=0;points=[];" parent="AWj1wq0FyH8tM0hqccie-71" vertex="1" connectable="0">
          <mxGeometry x="0.0572" relative="1" as="geometry">
            <mxPoint x="-3" y="-1" as="offset" />
          </mxGeometry>
        </mxCell>
        <mxCell id="AWj1wq0FyH8tM0hqccie-73" value="" style="curved=1;endArrow=classic;html=1;rounded=0;entryX=0.127;entryY=0.164;entryDx=0;entryDy=0;exitX=0.884;exitY=0.167;exitDx=0;exitDy=0;startArrow=none;startFill=0;endFill=1;exitPerimeter=0;entryPerimeter=0;" parent="1" source="AWj1wq0FyH8tM0hqccie-44" target="AWj1wq0FyH8tM0hqccie-43" edge="1">
          <mxGeometry width="50" height="50" relative="1" as="geometry">
            <mxPoint x="52" y="849" as="sourcePoint" />
            <mxPoint x="213" y="856" as="targetPoint" />
            <Array as="points">
              <mxPoint x="130" y="820" />
            </Array>
          </mxGeometry>
        </mxCell>
        <mxCell id="AWj1wq0FyH8tM0hqccie-74" value="DEVICE_STATUS [ ]" style="edgeLabel;html=1;align=center;verticalAlign=middle;resizable=0;points=[];" parent="AWj1wq0FyH8tM0hqccie-73" vertex="1" connectable="0">
          <mxGeometry x="0.0572" relative="1" as="geometry">
            <mxPoint x="-4" y="12" as="offset" />
          </mxGeometry>
        </mxCell>
        <mxCell id="AWj1wq0FyH8tM0hqccie-75" value="" style="curved=1;endArrow=none;html=1;rounded=0;entryX=0.223;entryY=0.081;entryDx=0;entryDy=0;exitX=0.776;exitY=0.07;exitDx=0;exitDy=0;startArrow=classic;startFill=1;endFill=0;exitPerimeter=0;entryPerimeter=0;" parent="1" source="AWj1wq0FyH8tM0hqccie-44" target="AWj1wq0FyH8tM0hqccie-43" edge="1">
          <mxGeometry width="50" height="50" relative="1" as="geometry">
            <mxPoint x="37" y="831" as="sourcePoint" />
            <mxPoint x="228" y="845" as="targetPoint" />
            <Array as="points">
              <mxPoint x="140" y="770" />
            </Array>
          </mxGeometry>
        </mxCell>
        <mxCell id="AWj1wq0FyH8tM0hqccie-76" value="DEVICE_OVERRIDE [ ]" style="edgeLabel;html=1;align=center;verticalAlign=middle;resizable=0;points=[];" parent="AWj1wq0FyH8tM0hqccie-75" vertex="1" connectable="0">
          <mxGeometry x="0.0572" relative="1" as="geometry">
            <mxPoint x="-14" y="26" as="offset" />
          </mxGeometry>
        </mxCell>
        <mxCell id="AWj1wq0FyH8tM0hqccie-77" value="" style="curved=1;endArrow=classic;html=1;rounded=0;entryX=0.223;entryY=0.926;entryDx=0;entryDy=0;exitX=0.776;exitY=0.923;exitDx=0;exitDy=0;startArrow=none;startFill=0;endFill=1;exitPerimeter=0;entryPerimeter=0;" parent="1" source="AWj1wq0FyH8tM0hqccie-44" target="AWj1wq0FyH8tM0hqccie-43" edge="1">
          <mxGeometry width="50" height="50" relative="1" as="geometry">
            <mxPoint x="21" y="1112" as="sourcePoint" />
            <mxPoint x="257" y="1136" as="targetPoint" />
            <Array as="points">
              <mxPoint x="130" y="1100" />
            </Array>
          </mxGeometry>
        </mxCell>
        <mxCell id="AWj1wq0FyH8tM0hqccie-78" value="Fehlermeldungen" style="edgeLabel;html=1;align=center;verticalAlign=middle;resizable=0;points=[];" parent="AWj1wq0FyH8tM0hqccie-77" vertex="1" connectable="0">
          <mxGeometry x="0.0572" relative="1" as="geometry">
            <mxPoint x="-4" y="-27" as="offset" />
          </mxGeometry>
        </mxCell>
        <mxCell id="AWj1wq0FyH8tM0hqccie-80" value="TimeServer" style="ellipse;whiteSpace=wrap;html=1;" parent="1" vertex="1">
          <mxGeometry x="232" y="660" width="139" height="110" as="geometry" />
        </mxCell>
        <mxCell id="AWj1wq0FyH8tM0hqccie-81" value="" style="curved=1;endArrow=none;html=1;rounded=0;entryX=0.5;entryY=1;entryDx=0;entryDy=0;exitX=0.5;exitY=0;exitDx=0;exitDy=0;startArrow=classic;startFill=1;endFill=0;" parent="1" source="AWj1wq0FyH8tM0hqccie-43" target="AWj1wq0FyH8tM0hqccie-80" edge="1">
          <mxGeometry width="50" height="50" relative="1" as="geometry">
            <mxPoint x="260" y="832" as="sourcePoint" />
            <mxPoint x="490" y="839" as="targetPoint" />
          </mxGeometry>
        </mxCell>
        <mxCell id="AWj1wq0FyH8tM0hqccie-82" value="Uhrzeit" style="edgeLabel;html=1;align=center;verticalAlign=middle;resizable=0;points=[];" parent="AWj1wq0FyH8tM0hqccie-81" vertex="1" connectable="0">
          <mxGeometry x="0.0572" relative="1" as="geometry">
            <mxPoint x="2" as="offset" />
          </mxGeometry>
        </mxCell>
        <mxCell id="AWj1wq0FyH8tM0hqccie-84" value="Automatische Zeiten" style="edgeStyle=orthogonalEdgeStyle;rounded=0;orthogonalLoop=1;jettySize=auto;html=1;startArrow=classic;startFill=1;" parent="1" source="AWj1wq0FyH8tM0hqccie-83" target="AWj1wq0FyH8tM0hqccie-42" edge="1">
          <mxGeometry relative="1" as="geometry" />
        </mxCell>
        <mxCell id="AWj1wq0FyH8tM0hqccie-83" value="Server" style="ellipse;whiteSpace=wrap;html=1;" parent="1" vertex="1">
          <mxGeometry x="600" y="830.5" width="217" height="192.5" as="geometry" />
        </mxCell>
      </root>
    </mxGraphModel>
  </diagram>
</mxfile>
